<svg width="96" height="108" viewBox="0 0 96 108" fill="none" xmlns="http://www.w3.org/2000/svg">
<g clip-path="url(#clip0_23_68)">
<path d="M77.1395 16H48.8605C46.1761 16 44 18.1761 44 20.8605V49.1395C44 51.8239 46.1761 54 48.8605 54H77.1395C79.8239 54 82 51.8239 82 49.1395V20.8605C82 18.1761 79.8239 16 77.1395 16Z" stroke="#C25A5A" stroke-width="5"/>
<path d="M29 85.5H20C16.9624 85.5 14.5 87.9624 14.5 91V100C14.5 103.038 16.9624 105.5 20 105.5H29C32.0376 105.5 34.5 103.038 34.5 100V91C34.5 87.9624 32.0376 85.5 29 85.5Z" stroke="#C25A5A" stroke-width="5"/>
<path d="M26.6071 2.5H8.39286C5.13832 2.5 2.5 4.96243 2.5 8V70C2.5 73.0376 5.13832 75.5 8.39286 75.5H26.6071C29.8617 75.5 32.5 73.0376 32.5 70V8C32.5 4.96243 29.8617 2.5 26.6071 2.5Z" stroke="#C25A5A" stroke-width="5"/>
<path d="M93.5 83V73C93.5 69.9624 91.0376 67.5 88 67.5H51C47.9624 67.5 45.5 69.9624 45.5 73V83C45.5 86.0376 47.9624 88.5 51 88.5H88C91.0376 88.5 93.5 86.0376 93.5 83Z" stroke="#C25A5A" stroke-width="5"/>
</g>
<defs>
<clipPath id="clip0_23_68">
<rect width="96" height="108" fill="white"/>
</clipPath>
</defs>
</svg>
