<svg width="178" height="144" viewBox="0 0 178 144" fill="none" xmlns="http://www.w3.org/2000/svg">
<path d="M152.897 5.38188H25.1026C13.7595 5.38188 4.5641 14.5748 4.5641 25.9149V118.085C4.5641 129.425 13.7595 138.618 25.1026 138.618H152.897C164.241 138.618 173.436 129.425 173.436 118.085V25.9149C173.436 14.5748 164.241 5.38188 152.897 5.38188Z" fill="white" stroke="#224261" stroke-width="8"/>
<path d="M4.65794 41.7234H173.342" stroke="#224261" stroke-width="8"/>
<path d="M26.3877 28.3475C28.946 28.3475 31.0199 26.3899 31.0199 23.9752C31.0199 21.5604 28.946 19.6029 26.3877 19.6029C23.8294 19.6029 21.7555 21.5604 21.7555 23.9752C21.7555 26.3899 23.8294 28.3475 26.3877 28.3475Z" fill="#224261"/>
<path d="M42.1373 28.3475C44.6956 28.3475 46.7695 26.3899 46.7695 23.9752C46.7695 21.5604 44.6956 19.6029 42.1373 19.6029C39.579 19.6029 37.5051 21.5604 37.5051 23.9752C37.5051 26.3899 39.579 28.3475 42.1373 28.3475Z" fill="#224261"/>
<path d="M57.8867 28.3475C60.445 28.3475 62.5189 26.3899 62.5189 23.9752C62.5189 21.5604 60.445 19.6029 57.8867 19.6029C55.3285 19.6029 53.2545 21.5604 53.2545 23.9752C53.2545 26.3899 55.3285 28.3475 57.8867 28.3475Z" fill="#224261"/>
</svg>
